<svg width="16" height="16" viewBox="0 0 16 16" fill="none" xmlns="http://www.w3.org/2000/svg">
<path d="M11.9688 9.375C11.9167 8.77083 11.8177 8.22396 11.6719 7.73438C11.5156 7.24479 11.3333 6.78906 11.125 6.36719C10.9167 5.94531 10.6875 5.55729 10.4375 5.20312C10.1875 4.83854 9.9375 4.49479 9.6875 4.17188C9.23958 3.55729 8.84635 2.95833 8.50781 2.375C8.16927 1.79167 8 1.10938 8 0.328125C8 0.265625 7.98438 0.208333 7.95312 0.15625C7.92188 0.104167 7.875 0.0625 7.8125 0.03125C7.76042 0.010417 7.70312 0 7.64062 0C7.57812 0 7.52083 0.020833 7.46875 0.0625C7.10417 0.322917 6.75521 0.625 6.42188 0.96875C6.08854 1.32292 5.78646 1.69531 5.51562 2.08594C5.24479 2.47656 5.01042 2.88542 4.8125 3.3125C4.60417 3.73958 4.44792 4.16146 4.34375 4.57812C4.19792 5.17188 4.10417 5.77604 4.0625 6.39062C4.02083 7.00521 4 7.53125 4 7.96875C3.32292 7.82292 2.875 7.39844 2.65625 6.69531C2.4375 5.99219 2.32812 5.63542 2.32812 5.625C2.31771 5.57292 2.29948 5.52344 2.27344 5.47656C2.2474 5.42969 2.20833 5.39583 2.15625 5.375C2.10417 5.34375 2.05208 5.32812 2 5.32812C1.94792 5.32812 1.90104 5.33854 1.85938 5.35938C1.81771 5.38021 1.51042 5.67708 0.9375 6.25C0.364583 6.82292 0.0520833 7.95833 0 9.65625C0 9.71875 0 9.77865 0 9.83594C0 9.89323 0 9.94792 0 10C0 10.8229 0.15625 11.599 0.46875 12.3281C0.78125 13.0573 1.21094 13.6953 1.75781 14.2422C2.30469 14.7891 2.94271 15.2188 3.67188 15.5312C4.40104 15.8438 5.17708 16 6 16C6 16 6.0026 16 6.00781 16C6.01302 16 6.01562 16 6.01562 16C6.83854 16 7.61458 15.8385 8.34375 15.5156C9.07292 15.2031 9.70833 14.776 10.25 14.2344C10.7917 13.6927 11.2188 13.0573 11.5312 12.3281C11.8438 11.599 12 10.8229 12 10C12 9.91667 11.9948 9.79167 11.9844 9.625C11.974 9.45833 11.9688 9.375 11.9688 9.375ZM6 15.3281C5.44792 15.3281 4.97656 15.1198 4.58594 14.7031C4.19531 14.2865 4 13.7865 4 13.2031C4 13.1823 4 13.1615 4 13.1406C4 13.1198 4 13.099 4 13.0781C4.01042 12.8281 4.03646 12.6172 4.07812 12.4453C4.11979 12.2734 4.16667 12.1302 4.21875 12.0156C4.3125 12.224 4.44792 12.4089 4.625 12.5703C4.80208 12.7318 5.03125 12.8125 5.3125 12.8125C5.40625 12.8125 5.48438 12.7786 5.54688 12.7109C5.60938 12.6432 5.64062 12.5677 5.64062 12.4844C5.64062 12.2448 5.64844 11.9922 5.66406 11.7266C5.67969 11.4609 5.71875 11.2083 5.78125 10.9688C5.83333 10.75 5.91927 10.5286 6.03906 10.3047C6.15885 10.0807 6.29688 9.875 6.45312 9.6875C6.52604 9.92708 6.625 10.1484 6.75 10.3516C6.875 10.5547 7.00521 10.75 7.14062 10.9375C7.32812 11.2188 7.50781 11.5156 7.67969 11.8281C7.85156 12.1406 7.95312 12.5417 7.98438 13.0312C7.99479 13.0521 8 13.0781 8 13.1094C8 13.1406 8 13.1719 8 13.2031C8 13.7865 7.80469 14.2865 7.41406 14.7031C7.02344 15.1198 6.55208 15.3281 6 15.3281Z" fill="#FF6565"/>
</svg>
