<svg width="27" height="24" viewBox="0 0 27 24" fill="none" xmlns="http://www.w3.org/2000/svg">
<path d="M0.5 0H26.9V24H0.5V0Z" fill="#6FD796"/>
<g clip-path="url(#clip0_105_1230)">
<mask id="mask0_105_1230" style="mask-type:luminance" maskUnits="userSpaceOnUse" x="6" y="5" width="15" height="14">
<path d="M20.5 5H6.5V19H20.5V5Z" fill="white"/>
</mask>
<g mask="url(#mask0_105_1230)">
<path d="M19.3894 6.98456C18.6647 6.19853 17.6702 5.76562 16.5891 5.76562C15.781 5.76562 15.0409 6.02112 14.3893 6.52495C14.0605 6.77927 13.7627 7.09041 13.5 7.45357C13.2375 7.09052 12.9394 6.77927 12.6106 6.52495C11.9591 6.02112 11.219 5.76562 10.4109 5.76562C9.32976 5.76562 8.33524 6.19853 7.61052 6.98456C6.89446 7.7614 6.5 8.82268 6.5 9.97304C6.5 11.157 6.94124 12.2409 7.88855 13.384C8.73599 14.4065 9.95396 15.4445 11.3644 16.6464C11.846 17.0569 12.3919 17.5222 12.9588 18.0178C13.1085 18.1489 13.3007 18.2211 13.5 18.2211C13.6992 18.2211 13.8915 18.1489 14.041 18.018C14.6079 17.5223 15.1541 17.0568 15.6359 16.6461C17.0461 15.4444 18.2641 14.4065 19.1116 13.3839C20.0589 12.2409 20.5 11.157 20.5 9.97293C20.5 8.82268 20.1055 7.7614 19.3894 6.98456Z" fill="white"/>
</g>
</g>
<defs>
<clipPath id="clip0_105_1230">
<rect width="14" height="14" fill="white" transform="translate(6.5 5)"/>
</clipPath>
</defs>
</svg>
