<svg width="13" height="14" viewBox="0 0 13 14" fill="none" xmlns="http://www.w3.org/2000/svg">
<path d="M6.14439 1.19628C6.17826 1.12528 6.22694 1.06981 6.29045 1.02987C6.35395 0.989939 6.4238 0.969971 6.5 0.969971C6.5762 0.969971 6.64605 0.989939 6.70955 1.02987C6.77306 1.06981 6.82174 1.12528 6.85561 1.19628L8.41774 4.51099C8.49394 4.66186 8.59766 4.78832 8.7289 4.89038C8.86013 4.99244 9.01042 5.05678 9.17976 5.08341L12.6596 5.61589C12.7358 5.62477 12.8036 5.65583 12.8628 5.70908C12.9221 5.76233 12.9602 5.82445 12.9771 5.89545C13.0025 5.97532 13.0068 6.05297 12.9898 6.12841C12.9729 6.20384 12.939 6.27262 12.8882 6.33474L10.3609 8.90398C10.2423 9.02823 10.1577 9.17244 10.1069 9.33662C10.0561 9.5008 10.0434 9.66721 10.0688 9.83583L10.6657 13.4833C10.6826 13.5632 10.6763 13.6386 10.6466 13.7096C10.617 13.7806 10.5683 13.8383 10.5006 13.8827C10.4413 13.936 10.3736 13.9648 10.2974 13.9692C10.2212 13.9737 10.1492 13.9581 10.0815 13.9226L6.96991 12.2054C6.82597 12.1255 6.66934 12.0856 6.5 12.0856C6.33066 12.0856 6.17403 12.1255 6.03009 12.2054L2.91852 13.9226C2.85079 13.9581 2.77882 13.9737 2.70262 13.9692C2.62642 13.9648 2.55868 13.936 2.49941 13.8827C2.43168 13.8383 2.38511 13.7806 2.35971 13.7096C2.33431 13.6386 2.32584 13.5632 2.33431 13.4833L2.93122 9.83583C2.95662 9.66721 2.94392 9.5008 2.89312 9.33662C2.84232 9.17244 2.75765 9.02823 2.63912 8.90398L0.124463 6.33474C0.0651947 6.27262 0.0270939 6.20384 0.0101602 6.12841C-0.00677348 6.05297 -0.00254005 5.97532 0.0228605 5.89545C0.0397942 5.82445 0.077895 5.76233 0.137163 5.70908C0.196431 5.65583 0.264166 5.62477 0.340367 5.61589L3.82024 5.08341C3.98958 5.05678 4.13987 4.99244 4.2711 4.89038C4.40234 4.78832 4.50606 4.66186 4.58226 4.51099L6.14439 1.19628Z" fill="#FFCC47"/>
</svg>
