<svg width="33" height="49" viewBox="0 0 33 49" fill="none" xmlns="http://www.w3.org/2000/svg">
<g clip-path="url(#clip0_50_1437)">
<path d="M16.9258 39.02C19.1341 39.02 21.207 38.6034 23.1445 37.77C25.1029 36.9367 26.806 35.7961 28.2539 34.3481C29.7018 32.9002 30.8424 31.1971 31.6758 29.2388C32.5091 27.3013 32.9258 25.2284 32.9258 23.02C32.9258 20.8117 32.5091 18.7388 31.6758 16.8013C30.8424 14.8429 29.7018 13.1398 28.2539 11.6919C26.806 10.244 25.1029 9.10335 23.1445 8.27002C21.207 7.43669 19.1341 7.02002 16.9258 7.02002C14.7174 7.02002 12.6445 7.43669 10.707 8.27002C8.7487 9.10335 7.04557 10.244 5.59766 11.6919C4.14974 13.1398 3.00911 14.8429 2.17578 16.8013C1.34245 18.7388 0.925781 20.8117 0.925781 23.02C0.925781 25.2284 1.34245 27.3013 2.17578 29.2388C3.00911 31.1971 4.14974 32.9002 5.59766 34.3481C7.04557 35.7961 8.7487 36.9367 10.707 37.77C12.6445 38.6034 14.7174 39.02 16.9258 39.02Z" fill="#3B5998"/>
</g>
<path d="M20.1758 23.645H17.3008V34.1138H12.9883V23.645H10.9258V19.9575H12.9883V17.5825C12.9883 16.7284 13.2695 15.7909 13.832 14.77C14.3945 13.7492 15.5716 13.2388 17.3633 13.2388H20.5508V16.8013H18.2383C18.0508 16.8013 17.8477 16.869 17.6289 17.0044C17.4102 17.1398 17.3008 17.4054 17.3008 17.8013V19.9888H20.5508L20.1758 23.645Z" fill="white"/>
<defs>
<clipPath id="clip0_50_1437">
<rect width="32" height="32" fill="white" transform="matrix(1 0 0 -1 0.925781 39.02)"/>
</clipPath>
</defs>
</svg>
