<svg width="33" height="33" viewBox="0 0 33 33" fill="none" xmlns="http://www.w3.org/2000/svg">
<g clip-path="url(#clip0_50_1462)">
<path d="M16.9258 32.02C19.1341 32.02 21.207 31.6034 23.1445 30.77C25.1029 29.9367 26.806 28.7961 28.2539 27.3481C29.7018 25.9002 30.8424 24.1971 31.6758 22.2388C32.5091 20.3013 32.9258 18.2284 32.9258 16.02C32.9258 13.8117 32.5091 11.7388 31.6758 9.80127C30.8424 7.84294 29.7018 6.13981 28.2539 4.69189C26.806 3.24398 25.1029 2.10335 23.1445 1.27002C21.207 0.436686 19.1341 0.0200195 16.9258 0.0200195C14.7174 0.0200195 12.6445 0.436686 10.707 1.27002C8.7487 2.10335 7.04557 3.24398 5.59766 4.69189C4.14974 6.13981 3.00911 7.84294 2.17578 9.80127C1.34245 11.7388 0.925781 13.8117 0.925781 16.02C0.925781 18.2284 1.34245 20.3013 2.17578 22.2388C3.00911 24.1971 4.14974 25.9002 5.59766 27.3481C7.04557 28.7961 8.7487 29.9367 10.707 30.77C12.6445 31.6034 14.7174 32.02 16.9258 32.02Z" fill="#D42428"/>
</g>
<path d="M24.1758 12.9263C24.1758 12.2596 23.9362 11.6867 23.457 11.2075C22.9779 10.7284 22.4049 10.4888 21.7383 10.4888H10.3633C9.69661 10.4888 9.1237 10.7284 8.64453 11.2075C8.16536 11.6867 7.92578 12.2596 7.92578 12.9263V19.4575C7.92578 20.1242 8.16536 20.6919 8.64453 21.1606C9.1237 21.6294 9.69661 21.8638 10.3633 21.8638H21.7383C22.4049 21.8638 22.9779 21.6294 23.457 21.1606C23.9362 20.6919 24.1758 20.1242 24.1758 19.4575V12.9263ZM14.4258 18.9263V12.8325L19.082 15.8638L14.4258 18.9263Z" fill="white"/>
<defs>
<clipPath id="clip0_50_1462">
<rect width="32" height="32" fill="white" transform="matrix(1 0 0 -1 0.925781 32.02)"/>
</clipPath>
</defs>
</svg>
