<svg width="34" height="34" viewBox="0 0 34 34" fill="none" xmlns="http://www.w3.org/2000/svg">
<g clip-path="url(#clip0_101_1557)">
<g clip-path="url(#clip1_101_1557)">
<g clip-path="url(#clip2_101_1557)">
<mask id="mask0_101_1557" style="mask-type:luminance" maskUnits="userSpaceOnUse" x="0" y="0" width="34" height="34">
<path d="M34 0H0V34H34V0Z" fill="white"/>
</mask>
<g mask="url(#mask0_101_1557)">
<path d="M26.6122 16.1452C26.8536 15.4368 28.5224 10.4026 28.1385 7.85391C27.7146 5.04557 24.9843 4.1197 23.3617 3.98852C22.1528 2.58003 20.6186 1.48775 18.8921 0.806415C18.7947 0.724429 18.6719 0.678745 18.5447 0.677193C15.9357 -0.219196 13.1032 -0.225876 10.4899 0.658299C5.93516 2.05714 5.42576 8.2245 5.99049 10.4427C6.51042 12.4859 9.05916 16.0462 9.16753 16.197C9.20026 16.2339 9.23798 16.2661 9.27954 16.2926C9.25201 17.8206 9.10153 19.3439 8.8296 20.8478C8.78189 21.1302 8.76522 21.4169 8.7798 21.7029C8.87656 23.582 9.18082 28.1264 9.92248 29.7331C10.8323 31.703 15.5652 33.6535 17.599 33.9589C17.6664 33.9862 17.7386 34.0001 17.8114 34.0001H18.0725C18.1453 34.0002 18.2174 33.9862 18.2849 33.9589C20.3192 33.6535 25.0521 31.703 25.9619 29.7331C26.7037 28.1264 27.0079 23.582 27.1047 21.7029C27.1193 21.4168 27.1026 21.13 27.0549 20.8475C26.7702 19.296 26.622 17.7226 26.6122 16.1452ZM26.6466 6.94503C26.216 7.02567 25.8174 7.22777 25.4979 7.52758C25.1664 7.83393 24.8875 8.19252 24.6721 8.58916C24.4657 8.39867 24.2378 8.233 23.9929 8.09562C24.4624 7.20294 24.223 6.03306 23.947 5.22304C25.0489 5.39221 26.0287 6.0172 26.6466 6.94503ZM24.5643 10.2082C25.3185 11.3509 25.4599 12.6141 25.4806 15.1623L23.9227 14.3834V14.1671C23.9219 13.5418 23.4152 13.0351 22.7899 13.0343H19.3916C18.7663 13.0351 18.2596 13.5418 18.2588 14.1671V14.2748C17.8949 14.1312 17.4901 14.1312 17.1261 14.2748V14.1671C17.1253 13.5418 16.6186 13.0351 15.9933 13.0343H12.595C11.9697 13.0351 11.463 13.5418 11.4622 14.1671V14.3834L10.1866 15.0212C9.92835 13.574 9.7027 10.6742 11.6707 9.35012C12.1104 9.24316 12.5708 9.257 13.0032 9.3902C14.1667 9.62961 15.365 9.64493 16.5342 9.43528C17.8932 9.16516 19.2705 8.99842 20.6547 8.93654L20.6626 8.93809C20.6684 8.93809 20.6738 8.93573 20.6796 8.93559C21.4424 8.89585 22.2067 8.89524 22.9695 8.93371C22.9823 8.93438 22.9938 8.92864 23.0064 8.92851C23.0868 8.93586 23.7895 9.03398 24.5643 10.2082ZM21.0051 22.2982C20.0744 21.8345 19.0548 21.5763 18.0156 21.5413C16.8535 21.5924 15.7107 21.8577 14.6449 22.3239C14.024 22.5722 13.1894 22.8521 12.505 23.0674C12.207 22.698 11.9575 22.2922 11.7625 21.8596C12.3327 21.7475 12.8962 21.6035 13.4502 21.4284C14.5698 21.0238 15.6527 20.5239 16.687 19.9345L17.7832 20.3978C17.9245 20.4577 18.084 20.4576 18.2252 20.3975L19.3159 19.9345C20.3524 20.525 21.438 21.0251 22.5604 21.4293C23.0195 21.5766 23.5372 21.7106 24.1012 21.8308C23.9009 22.2746 23.6441 22.6907 23.3372 23.0687C22.5433 22.8647 21.7642 22.6073 21.0051 22.2982ZM22.115 23.8953C20.6329 24.38 20.3605 24.2852 19.9248 24.1293C19.2844 23.8901 18.603 23.7799 17.9198 23.8049L17.9183 23.8052C17.2357 23.7804 16.5548 23.8905 15.9148 24.1293C15.4742 24.287 15.2 24.382 13.6743 23.8791C14.1246 23.728 14.6253 23.5517 15.0641 23.3761C15.9978 22.9669 16.9975 22.7292 18.0154 22.6742C18.888 22.7097 19.743 22.9311 20.5232 23.3235C21.0413 23.5474 21.5729 23.7384 22.115 23.8953ZM22.9083 20.3513C21.776 19.9331 20.6815 19.419 19.6367 18.8145C19.4826 18.7243 19.2948 18.7125 19.1306 18.7827L18.0034 19.2611L16.8711 18.7824C16.707 18.7129 16.5196 18.7248 16.3656 18.8145C15.3224 19.4181 14.23 19.9322 13.1001 20.3513C12.5206 20.5324 11.9307 20.6783 11.3336 20.7883C10.8522 19.2904 10.5434 17.7425 10.4132 16.1745L11.4624 15.6499V15.8661C11.4631 16.4915 11.9698 16.9982 12.5951 16.9989H15.9934C16.6188 16.9982 17.1255 16.4915 17.1262 15.8661V15.5608C17.2873 15.4232 17.4833 15.3329 17.6926 15.2998C17.9018 15.3328 18.0978 15.4231 18.2589 15.5606V15.8662C18.2596 16.4915 18.7663 16.9982 19.3917 16.999H22.79C23.4153 16.9982 23.922 16.4915 23.9227 15.8662V15.6499L25.3685 16.3728C25.3949 16.3848 25.4221 16.3946 25.4501 16.4023C25.3011 17.8846 24.993 19.3467 24.5311 20.7632C23.9831 20.6553 23.4414 20.5178 22.9083 20.3513ZM15.9939 15.8661H12.5951V14.167H15.9934L15.9938 15.2981L15.9939 15.8661ZM19.3917 15.8661V14.167H22.79L22.7905 15.8661H19.3917ZM22.5294 4.7567C22.5357 4.77201 22.5386 4.78834 22.5465 4.80326C22.5582 4.82579 23.6536 6.98262 22.8077 7.79055C22.5286 7.77806 22.0208 7.76382 21.339 7.77766C21.3599 6.21444 21.0707 4.66256 20.4884 3.2117C20.4088 3.05353 20.3141 2.8822 20.2123 2.70595C21.0937 3.25549 21.8769 3.94864 22.5294 4.7567ZM18.1949 1.7219C18.6765 2.3504 19.1047 3.01797 19.4751 3.71772C19.9847 5.0256 20.2325 6.42079 20.2043 7.82408C19.8286 7.84669 19.4266 7.87807 19 7.92139C19.0019 7.87942 18.999 7.83738 18.9913 7.79608C18.9564 7.62178 18.9313 7.44573 18.916 7.26866C18.7844 6.09608 18.5388 3.91328 16.4807 2.39332C15.7557 1.86131 14.9558 1.43984 14.1071 1.1426C15.4946 1.06263 16.8842 1.25954 18.1949 1.7219ZM10.8229 1.7412C10.8669 1.7277 10.9092 1.71765 10.9529 1.70463C10.975 1.70915 10.9974 1.71218 11.0198 1.7138C12.7411 1.7414 14.4125 2.29662 15.8081 3.30455C17.4685 4.53078 17.6698 6.32396 17.7904 7.39532C17.8102 7.6176 17.8439 7.83839 17.8913 8.05641C17.5185 8.10891 17.1352 8.17133 16.7413 8.2436L16.7246 8.17774C16.3364 6.31802 15.2813 4.66445 13.7583 3.52892C12.4568 2.60736 10.8302 2.26983 9.26962 2.59751C9.72443 2.21025 10.2528 1.91901 10.8229 1.7412ZM8.08139 4.02489C8.13025 4.01402 8.19179 3.99871 8.27708 3.9736C10.271 3.38674 11.8877 3.54133 13.0791 4.43489C14.3873 5.40652 15.2915 6.82627 15.6187 8.42262C15.2381 8.4573 14.8553 8.46142 14.4741 8.43483C14.0743 7.04295 13.0697 5.90465 11.7384 5.33479C10.4653 4.76574 9.05106 4.59083 7.6778 4.83268C7.79501 4.55514 7.92983 4.28529 8.08139 4.02489ZM7.25984 6.07888C7.28258 6.08259 7.30552 6.08481 7.32846 6.08562C7.40849 6.07341 7.48744 6.05506 7.56464 6.03056C7.96566 5.91301 9.18744 5.5549 11.2887 6.37376C12.1484 6.73929 12.8356 7.41988 13.2095 8.27599L13.1847 8.27201C12.5292 8.08091 11.8303 8.10061 11.1866 8.32849L11.1819 8.3237C10.73 7.80276 10.1702 7.38641 9.54143 7.10354C8.75773 6.84146 7.93118 6.73173 7.10625 6.78012C7.14829 6.54731 7.19951 6.31357 7.25984 6.07888ZM8.90038 13.7586C8.14367 12.6463 7.53508 11.44 7.08999 10.1704C7.46072 10.1293 7.83536 10.1391 8.20346 10.1996C8.57965 10.3662 8.92784 10.59 9.23562 10.8631C8.94755 11.7996 8.83391 12.7811 8.90038 13.7586ZM8.44078 9.09201C7.94664 9.00894 7.44338 8.9943 6.94525 9.04862C6.92919 8.67222 6.93506 8.29529 6.96279 7.91956C7.69264 7.86342 8.42648 7.94413 9.1267 8.15756C9.57672 8.36823 9.97754 8.67101 10.3032 9.04619C10.082 9.27636 9.88598 9.52941 9.71843 9.80115C9.34162 9.48548 8.90794 9.24478 8.44078 9.09201ZM25.9731 21.6447C25.8238 24.5607 25.472 28.092 24.9332 29.2585C24.2319 30.7776 19.5449 32.7533 17.942 32.8625C16.3391 32.7533 11.6526 30.7776 10.9513 29.2585C10.4125 28.092 10.0608 24.5607 9.91148 21.6447C9.90096 21.4409 9.91283 21.2367 9.94691 21.0354C9.97248 20.8831 10.0032 20.694 10.0361 20.4828C10.5984 22.4168 11.5571 24.3628 13.1782 24.9082C13.8664 25.1805 14.5929 25.344 15.3314 25.3927C15.6631 25.3882 15.9909 25.3212 16.2977 25.1953C16.8155 25.0009 17.3674 24.9133 17.92 24.9378L17.9212 24.9375C18.4734 24.913 19.0248 25.0007 19.5422 25.1952C19.8491 25.321 20.1769 25.388 20.5085 25.3927C21.2471 25.3438 21.9735 25.1802 22.6618 24.9078C24.2981 24.357 25.2687 22.3768 25.8395 20.4235C25.8758 20.659 25.9099 20.8686 25.9378 21.035C25.9717 21.2365 25.9836 21.4408 25.9731 21.6447ZM26.4896 12.5019C26.4046 11.4642 26.0682 10.4626 25.5095 9.584C25.4976 9.56605 25.4857 9.55073 25.4739 9.53312C25.6454 9.09005 25.914 8.69105 26.2601 8.36547C26.4669 8.17032 26.7351 8.05311 27.0188 8.03381C27.1857 9.16293 26.8729 10.9317 26.4896 12.5019Z" fill="#6C5FC5" stroke="#6C5FC5" stroke-width="0.4"/>
</g>
</g>
</g>
</g>
<defs>
<clipPath id="clip0_101_1557">
<rect width="34" height="34" fill="white"/>
</clipPath>
<clipPath id="clip1_101_1557">
<rect width="34" height="34" fill="white"/>
</clipPath>
<clipPath id="clip2_101_1557">
<rect width="34" height="34" fill="white"/>
</clipPath>
</defs>
</svg>
