<svg width="34" height="34" viewBox="0 0 34 34" fill="none" xmlns="http://www.w3.org/2000/svg">
<g clip-path="url(#clip0_101_1570)">
<path d="M12.7502 24.0833H18.4168C20.2954 24.0833 22.0971 23.3371 23.4255 22.0087C24.7539 20.6803 25.5002 18.8786 25.5002 17V15.5833H26.9168C28.044 15.5833 29.125 15.1356 29.922 14.3385C30.7191 13.5415 31.1668 12.4605 31.1668 11.3333C31.1668 10.2062 30.7191 9.12516 29.922 8.32813C29.125 7.5311 28.044 7.08333 26.9168 7.08333H25.5002V5.66667C25.5002 5.29094 25.3509 4.93061 25.0852 4.66493C24.8196 4.39926 24.4592 4.25 24.0835 4.25H7.0835C6.70777 4.25 6.34744 4.39926 6.08176 4.66493C5.81609 4.93061 5.66683 5.29094 5.66683 5.66667V17C5.66683 18.8786 6.41311 20.6803 7.74149 22.0087C9.06987 23.3371 10.8715 24.0833 12.7502 24.0833ZM25.5002 9.91667H26.9168C27.2926 9.91667 27.6529 10.0659 27.9186 10.3316C28.1842 10.5973 28.3335 10.9576 28.3335 11.3333C28.3335 11.7091 28.1842 12.0694 27.9186 12.3351C27.6529 12.6007 27.2926 12.75 26.9168 12.75H25.5002V9.91667ZM8.50016 7.08333H22.6668V17C22.6668 18.1272 22.2191 19.2082 21.422 20.0052C20.625 20.8022 19.544 21.25 18.4168 21.25H12.7502C11.623 21.25 10.542 20.8022 9.74496 20.0052C8.94793 19.2082 8.50016 18.1272 8.50016 17V7.08333ZM29.7502 26.9167H4.25016C3.87444 26.9167 3.5141 27.0659 3.24843 27.3316C2.98275 27.5973 2.8335 27.9576 2.8335 28.3333C2.8335 28.7091 2.98275 29.0694 3.24843 29.3351C3.5141 29.6007 3.87444 29.75 4.25016 29.75H29.7502C30.1259 29.75 30.4862 29.6007 30.7519 29.3351C31.0176 29.0694 31.1668 28.7091 31.1668 28.3333C31.1668 27.9576 31.0176 27.5973 30.7519 27.3316C30.4862 27.0659 30.1259 26.9167 29.7502 26.9167Z" fill="#7266CA"/>
</g>
<defs>
<clipPath id="clip0_101_1570">
<rect width="34" height="34" fill="white"/>
</clipPath>
</defs>
</svg>
