<svg width="35" height="34" viewBox="0 0 35 34" fill="none" xmlns="http://www.w3.org/2000/svg">
<g clip-path="url(#clip0_101_1588)">
<path d="M29.5277 10.6534C29.5196 10.616 29.5196 10.5774 29.5277 10.54C29.5208 10.5073 29.5208 10.4736 29.5277 10.4409V10.3134L29.4427 10.1009C29.4081 10.0429 29.3652 9.99035 29.3152 9.94502L29.1877 9.83169H29.1168L23.5352 6.30419L18.2652 3.04586C18.1432 2.94914 18.0037 2.87698 17.8543 2.83336H17.741C17.6144 2.81222 17.4851 2.81222 17.3585 2.83336H17.2168C17.0523 2.86975 16.8945 2.93191 16.7493 3.01752L6.16682 9.60502L6.03932 9.70419L5.91182 9.81752L5.77016 9.91669L5.69932 10.0017L5.61432 10.2142V10.4267C5.60056 10.5206 5.60056 10.6161 5.61432 10.71V23.0775C5.61384 23.3183 5.67473 23.5552 5.79123 23.7659C5.90772 23.9766 6.076 24.1541 6.28016 24.2817L16.9052 30.855L17.1177 30.94H17.231C17.4707 31.016 17.728 31.016 17.9677 30.94H18.081L18.2935 30.855L28.8335 24.3809C29.0377 24.2533 29.2059 24.0757 29.3224 23.865C29.4389 23.6543 29.4998 23.4174 29.4993 23.1767V10.8092C29.4993 10.8092 29.5277 10.71 29.5277 10.6534ZM17.5002 5.90752L20.0218 7.46586L12.1027 12.3675L9.56682 10.8092L17.5002 5.90752ZM16.0835 27.1575L8.29182 22.3975V13.345L16.0835 18.1617V27.1575ZM17.5002 15.6684L14.7943 14.0392L22.7135 9.12336L25.4335 10.8092L17.5002 15.6684ZM26.7085 22.355L18.9168 27.2V18.1617L26.7085 13.345V22.355Z" fill="#7266CA"/>
</g>
<defs>
<clipPath id="clip0_101_1588">
<rect width="34" height="34" fill="white" transform="translate(0.5)"/>
</clipPath>
</defs>
</svg>
