<svg width="35" height="34" viewBox="0 0 35 34" fill="none" xmlns="http://www.w3.org/2000/svg">
<g clip-path="url(#clip0_101_1605)">
<g clip-path="url(#clip1_101_1605)">
<path d="M17.5001 2.83337C15.1311 2.8358 12.8005 3.43229 10.7216 4.56827C8.64263 5.70426 6.88178 7.34345 5.60013 9.33587C3.79751 12.1629 3.056 15.5377 3.50746 18.86C3.95892 22.1823 5.57409 25.2368 8.06573 27.4803C10.5574 29.7238 13.764 31.0108 17.1153 31.1126C20.4666 31.2143 23.7453 30.1241 26.3685 28.0359C28.6515 26.1983 30.3084 23.6978 31.1109 20.8791C31.9134 18.0604 31.8219 15.0622 30.8491 12.2977C29.8763 9.53311 28.0701 7.13831 25.6793 5.44327C23.2885 3.74822 20.4308 2.83637 17.5001 2.83337ZM20.3335 6.03504C22.2911 6.54177 24.0774 7.56303 25.5073 8.99288C26.9371 10.4227 27.9584 12.2091 28.4651 14.1667C26.0964 14.2334 23.7845 14.9065 21.7501 16.1217C20.7286 14.9629 19.5891 13.9136 18.3501 12.9909C19.5984 10.8814 20.2815 8.48563 20.3335 6.03504ZM17.5001 5.66671C17.4955 7.69966 16.9372 9.69295 15.8851 11.4325C15.6726 11.3192 15.4743 11.1917 15.2618 11.0925C13.4376 10.13 11.4871 9.429 9.46763 9.01004C10.5203 7.95111 11.7718 7.11062 13.1503 6.53686C14.5287 5.96311 16.007 5.66739 17.5001 5.66671ZM7.58346 11.56C9.80539 11.8687 11.9573 12.5589 13.9443 13.6L14.1285 13.7134C13.0828 14.758 11.8413 15.5861 10.4751 16.1501C9.10892 16.714 7.64484 17.0029 6.1668 17C6.17467 15.0965 6.66188 13.2256 7.58346 11.56ZM14.6668 27.965C12.7092 27.4583 10.9228 26.4371 9.49297 25.0072C8.06311 23.5773 7.04186 21.791 6.53513 19.8334C8.4273 19.7914 10.2914 19.3668 12.0151 18.5853C13.7389 17.8037 15.2866 16.6814 16.5651 15.2859C17.5893 16.0429 18.5381 16.8969 19.3985 17.8359C17.9639 19.115 16.8046 20.6726 15.9912 22.414C15.1777 24.1553 14.7271 26.044 14.6668 27.965ZM17.5001 28.3334C17.5032 26.777 17.8268 25.2379 18.4507 23.8121C19.0747 22.3863 19.9856 21.1042 21.1268 20.0459C21.2118 20.1592 21.2968 20.2584 21.3676 20.3717C22.5548 22.1896 23.4354 24.1901 23.9743 26.2934C22.0782 27.6247 19.8169 28.3372 17.5001 28.3334ZM26.2976 24.0834C25.6824 22.2091 24.8252 20.4232 23.7476 18.7709L23.4501 18.4167C25.0973 17.5003 26.9486 17.0132 28.8335 17C28.8194 19.581 27.9248 22.0799 26.2976 24.0834Z" fill="#7266CA"/>
</g>
</g>
<defs>
<clipPath id="clip0_101_1605">
<rect width="34" height="34" fill="white" transform="translate(0.5)"/>
</clipPath>
<clipPath id="clip1_101_1605">
<rect width="34" height="34" fill="white" transform="translate(0.5)"/>
</clipPath>
</defs>
</svg>
