<svg width="34" height="34" viewBox="0 0 34 34" fill="none" xmlns="http://www.w3.org/2000/svg">
<g clip-path="url(#clip0_101_1579)">
<path d="M23.8565 16.4758C24.424 16.4829 24.9871 16.3762 25.5126 16.162C26.0382 15.9479 26.5155 15.6307 26.9165 15.2292L30.9257 11.22C31.1895 10.9546 31.3376 10.5955 31.3376 10.2212C31.3376 9.84699 31.1895 9.48793 30.9257 9.2225C30.794 9.08972 30.6373 8.98432 30.4647 8.9124C30.292 8.84048 30.1069 8.80345 29.9199 8.80345C29.7328 8.80345 29.5477 8.84048 29.375 8.9124C29.2024 8.98432 29.0457 9.08972 28.914 9.2225L24.8624 13.2175C24.7307 13.3503 24.574 13.4557 24.4013 13.5276C24.2287 13.5995 24.0435 13.6365 23.8565 13.6365C23.6695 13.6365 23.4843 13.5995 23.3117 13.5276C23.1391 13.4557 22.9824 13.3503 22.8507 13.2175L27.8657 8.21666C27.9978 8.08458 28.1026 7.92777 28.174 7.75518C28.2455 7.5826 28.2823 7.39763 28.2823 7.21083C28.2823 7.02403 28.2455 6.83906 28.174 6.66648C28.1026 6.4939 27.9978 6.33709 27.8657 6.205C27.7336 6.07291 27.5768 5.96813 27.4042 5.89665C27.2316 5.82516 27.0467 5.78837 26.8599 5.78837C26.6731 5.78837 26.4881 5.82516 26.3155 5.89665C26.1429 5.96813 25.9861 6.07291 25.854 6.205L20.8532 11.22C20.5893 10.9546 20.4412 10.5955 20.4412 10.2212C20.4412 9.84699 20.5893 9.48793 20.8532 9.2225L24.8624 5.21333C24.9944 5.08124 25.0992 4.92443 25.1707 4.75185C25.2422 4.57927 25.279 4.3943 25.279 4.2075C25.279 4.0207 25.2422 3.83573 25.1707 3.66314C25.0992 3.49056 24.9944 3.33375 24.8624 3.20166C24.7303 3.06958 24.5735 2.9648 24.4009 2.89331C24.2283 2.82183 24.0433 2.78503 23.8565 2.78503C23.6697 2.78503 23.4848 2.82183 23.3122 2.89331C23.1396 2.9648 22.9828 3.06958 22.8507 3.20166L18.8415 7.21083C18.0456 8.00771 17.5986 9.08791 17.5986 10.2142C17.5986 11.3404 18.0456 12.4206 18.8415 13.2175L16.9999 15.045L5.28403 3.28666L5.14236 3.20166C5.06994 3.13848 4.98884 3.086 4.90153 3.04583L4.64653 2.94666L4.47653 2.83333H4.09403C4.00956 2.81983 3.92349 2.81983 3.83903 2.83333C3.75326 2.86455 3.67222 2.90745 3.59819 2.96083L3.37153 3.1025H3.27236L3.18736 3.24416C3.1274 3.31896 3.07519 3.39965 3.03153 3.485C2.99004 3.57138 2.95683 3.66151 2.93236 3.75416C2.93236 3.75416 2.93236 3.85333 2.93236 3.91C2.58859 6.30616 2.80776 8.74947 3.57252 11.0462C4.33727 13.3429 5.62657 15.4299 7.33819 17.1417L11.0782 20.8675L3.41403 28.5175C3.28124 28.6492 3.17585 28.8059 3.10393 28.9785C3.03201 29.1511 2.99498 29.3363 2.99498 29.5233C2.99498 29.7104 3.03201 29.8955 3.10393 30.0681C3.17585 30.2408 3.28124 30.3975 3.41403 30.5292C3.5464 30.6605 3.70339 30.7643 3.87599 30.8348C4.0486 30.9053 4.23342 30.9411 4.41986 30.94C4.6063 30.9411 4.79112 30.9053 4.96373 30.8348C5.13633 30.7643 5.29332 30.6605 5.42569 30.5292L14.0249 22.0575L18.034 18.0483L20.8674 15.215C21.6578 16.014 22.7326 16.4673 23.8565 16.4758ZM13.019 19.0542L9.29319 15.3142C7.25101 13.244 5.97231 10.5418 5.66653 7.65L15.0307 17L13.019 19.0542ZM21.859 19.8617C21.5923 19.593 21.2297 19.4414 20.8511 19.44C20.4725 19.4387 20.1089 19.5878 19.8403 19.8546C19.5716 20.1213 19.42 20.4839 19.4186 20.8625C19.4173 21.2411 19.5664 21.6047 19.8332 21.8733L28.7582 30.7983C29.0288 31.0446 29.3841 31.1765 29.7499 31.1667C29.9363 31.1677 30.1211 31.132 30.2937 31.0615C30.4663 30.991 30.6233 30.8871 30.7557 30.7558C30.8885 30.6241 30.9939 30.4675 31.0658 30.2948C31.1377 30.1222 31.1747 29.937 31.1747 29.75C31.1747 29.563 31.1377 29.3778 31.0658 29.2052C30.9939 29.0325 30.8885 28.8759 30.7557 28.7442L21.859 19.8617Z" fill="#7266CA"/>
</g>
<defs>
<clipPath id="clip0_101_1579">
<rect width="34" height="34" fill="white"/>
</clipPath>
</defs>
</svg>
