<svg width="26" height="24" viewBox="0 0 26 24" fill="none" xmlns="http://www.w3.org/2000/svg">
<path d="M24.2753 9.57974L14.3258 9.57928C13.8864 9.57928 13.5303 9.91816 13.5303 10.3363V13.3612C13.5303 13.7792 13.8864 14.1182 14.3257 14.1182H19.9287C19.3152 15.6335 18.17 16.9025 16.709 17.7089L19.0982 21.6448C22.9306 19.5354 25.1964 15.8344 25.1964 11.6912C25.1964 11.1013 25.1507 10.6796 25.0593 10.2048C24.9898 9.84398 24.6607 9.57974 24.2753 9.57974Z" fill="#167EE6"/>
<path d="M12.9994 18.6631C10.2574 18.6631 7.86363 17.2373 6.578 15.1275L2.44238 17.3961C4.54697 20.8674 8.48955 23.205 12.9994 23.205C15.2117 23.205 17.2992 22.6381 19.0975 21.6502V21.6448L16.7084 17.7088C15.6156 18.312 14.351 18.6631 12.9994 18.6631Z" fill="#12B347"/>
<path d="M19.0992 21.6501V21.6447L16.7101 17.7087C15.6172 18.3119 14.3527 18.663 13.001 18.663V23.2049C15.2133 23.2049 17.301 22.6381 19.0992 21.6501Z" fill="#0F993E"/>
<path d="M5.57621 11.5979C5.57621 10.3117 5.94506 9.10828 6.57875 8.06831L2.44312 5.79974C1.39933 7.50577 0.803711 9.48705 0.803711 11.5979C0.803711 13.7088 1.39933 15.6901 2.44312 17.3961L6.57875 15.1275C5.94506 14.0876 5.57621 12.8842 5.57621 11.5979Z" fill="#FFD500"/>
<path d="M12.9994 4.53265C14.7874 4.53265 16.4298 5.13731 17.7127 6.1431C18.0292 6.3912 18.4892 6.37329 18.7791 6.09739L21.0311 3.95415C21.36 3.64112 21.3366 3.12873 20.9852 2.83864C18.8358 1.06407 16.0393 -0.00927734 12.9994 -0.00927734C8.48955 -0.00927734 4.54697 2.32834 2.44238 5.79969L6.578 8.06825C7.86363 5.95843 10.2574 4.53265 12.9994 4.53265Z" fill="#FF4B26"/>
<path d="M17.7143 6.1431C18.0308 6.3912 18.4908 6.37329 18.7807 6.09739L21.0327 3.95415C21.3616 3.64112 21.3382 3.12873 20.9868 2.83864C18.8375 1.06402 16.0409 -0.00927734 13.001 -0.00927734V4.53265C14.789 4.53265 16.4314 5.13731 17.7143 6.1431Z" fill="#D93F21"/>
</svg>
