<svg width="33" height="33" viewBox="0 0 33 33" fill="none" xmlns="http://www.w3.org/2000/svg">
<rect x="0.925781" y="0.0200195" width="32" height="32" rx="16" fill="url(#paint0_radial_50_1447)"/>
<path d="M5.92578 12.3638C5.96745 12.1346 5.9987 11.9106 6.01953 11.6919C6.04036 11.4731 6.07161 11.2596 6.11328 11.0513C6.34245 9.80127 6.86849 8.78564 7.69141 8.00439C8.51432 7.22314 9.55078 6.81169 10.8008 6.77002C12.3008 6.70752 13.8008 6.67627 15.3008 6.67627C16.8008 6.67627 18.2904 6.70752 19.7695 6.77002C21.1237 6.81169 22.2435 7.29085 23.1289 8.20752C24.0143 9.12419 24.4883 10.27 24.5508 11.645C24.5924 13.1034 24.6133 14.5617 24.6133 16.02C24.6133 17.4784 24.5924 18.9367 24.5508 20.395C24.4883 21.77 24.0143 22.9159 23.1289 23.8325C22.2435 24.7492 21.1237 25.2284 19.7695 25.27C18.2904 25.3325 16.8008 25.3638 15.3008 25.3638C13.8008 25.3638 12.3008 25.3325 10.8008 25.27C9.44661 25.2075 8.33724 24.7179 7.47266 23.8013C6.60807 22.8846 6.13411 21.7492 6.05078 20.395C6.02995 20.27 6.00911 20.145 5.98828 20.02C5.96745 19.895 5.94661 19.7804 5.92578 19.6763C5.92578 18.4471 5.92578 17.2284 5.92578 16.02C5.92578 14.8117 5.92578 13.5929 5.92578 12.3638ZM15.2695 23.645C15.957 23.645 16.6445 23.6502 17.332 23.6606C18.0195 23.6711 18.707 23.6659 19.3945 23.645C20.457 23.6034 21.3008 23.27 21.9258 22.645C22.5508 22.02 22.8737 21.1659 22.8945 20.0825C22.9362 18.7284 22.957 17.3742 22.957 16.02C22.957 14.6659 22.9362 13.3117 22.8945 11.9575C22.8737 10.8742 22.5508 10.02 21.9258 9.39502C21.3008 8.77002 20.457 8.43669 19.3945 8.39502C18.0195 8.37419 16.6549 8.36377 15.3008 8.36377C13.9466 8.36377 12.582 8.37419 11.207 8.39502C10.1445 8.41585 9.30078 8.73877 8.67578 9.36377C8.05078 9.98877 7.72786 10.8325 7.70703 11.895C7.66536 13.27 7.64453 14.645 7.64453 16.02C7.64453 17.395 7.66536 18.77 7.70703 20.145C7.72786 21.2075 8.05078 22.0461 8.67578 22.6606C9.30078 23.2752 10.1445 23.6034 11.207 23.645C11.8945 23.6659 12.5768 23.6711 13.2539 23.6606C13.931 23.6502 14.6029 23.645 15.2695 23.645Z" fill="white"/>
<path d="M15.6758 11.2075C14.3633 11.2075 13.2435 11.6763 12.3164 12.6138C11.3893 13.5513 10.9258 14.6867 10.9258 16.02C10.9258 17.3534 11.3893 18.4888 12.3164 19.4263C13.2435 20.3638 14.3633 20.8325 15.6758 20.8325C16.9883 20.8325 18.1081 20.3638 19.0352 19.4263C19.9622 18.4888 20.4258 17.3534 20.4258 16.02C20.4258 14.6867 19.9622 13.5513 19.0352 12.6138C18.1081 11.6763 16.9883 11.2075 15.6758 11.2075ZM15.6758 19.1763C14.8216 19.1763 14.0872 18.869 13.4727 18.2544C12.8581 17.6398 12.5508 16.895 12.5508 16.02C12.5508 15.145 12.8581 14.4002 13.4727 13.7856C14.0872 13.1711 14.8216 12.8638 15.6758 12.8638C16.5299 12.8638 17.2643 13.1711 17.8789 13.7856C18.4935 14.4002 18.8008 15.145 18.8008 16.02C18.8008 16.895 18.4935 17.6398 17.8789 18.2544C17.2643 18.869 16.5299 19.1763 15.6758 19.1763Z" fill="white"/>
<path d="M11.1758 10.9888C11.1758 11.3013 11.0664 11.5669 10.8477 11.7856C10.6289 12.0044 10.3633 12.1138 10.0508 12.1138C9.73828 12.1138 9.47266 12.0044 9.25391 11.7856C9.03516 11.5669 8.92578 11.3013 8.92578 10.9888C8.92578 10.6554 9.03516 10.3794 9.25391 10.1606C9.47266 9.94189 9.73828 9.83252 10.0508 9.83252C10.3633 9.83252 10.6289 9.94189 10.8477 10.1606C11.0664 10.3794 11.1758 10.6554 11.1758 10.9888Z" fill="white"/>
<defs>
<radialGradient id="paint0_radial_50_1447" cx="0" cy="0" r="1" gradientUnits="userSpaceOnUse" gradientTransform="translate(7.48578 27.9848) scale(35.2896)">
<stop stop-color="#FAE100"/>
<stop offset="0.0544" stop-color="#FADC04"/>
<stop offset="0.1167" stop-color="#FBCE0E"/>
<stop offset="0.1829" stop-color="#FCB720"/>
<stop offset="0.2514" stop-color="#FE9838"/>
<stop offset="0.3054" stop-color="#FF7950"/>
<stop offset="0.4922" stop-color="#FF1C74"/>
<stop offset="1" stop-color="#6C1CD1"/>
</radialGradient>
</defs>
</svg>
