<svg width="33" height="49" viewBox="0 0 33 49" fill="none" xmlns="http://www.w3.org/2000/svg">
<g clip-path="url(#clip0_50_1471)">
<path d="M16.9258 39.02C19.1341 39.02 21.207 38.6034 23.1445 37.77C25.1029 36.9367 26.806 35.7961 28.2539 34.3481C29.7018 32.9002 30.8424 31.1971 31.6758 29.2388C32.5091 27.3013 32.9258 25.2284 32.9258 23.02C32.9258 20.8117 32.5091 18.7388 31.6758 16.8013C30.8424 14.8429 29.7018 13.1398 28.2539 11.6919C26.806 10.244 25.1029 9.10335 23.1445 8.27002C21.207 7.43669 19.1341 7.02002 16.9258 7.02002C14.7174 7.02002 12.6445 7.43669 10.707 8.27002C8.7487 9.10335 7.04557 10.244 5.59766 11.6919C4.14974 13.1398 3.00911 14.8429 2.17578 16.8013C1.34245 18.7388 0.925781 20.8117 0.925781 23.02C0.925781 25.2284 1.34245 27.3013 2.17578 29.2388C3.00911 31.1971 4.14974 32.9002 5.59766 34.3481C7.04557 35.7961 8.7487 36.9367 10.707 37.77C12.6445 38.6034 14.7174 39.02 16.9258 39.02Z" fill="#039BE5"/>
</g>
<g filter="url(#filter0_d_50_1471)">
<path d="M7.72304 22.6762L23.1605 16.7387C23.5147 16.5929 23.8168 16.6293 24.0668 16.8481C24.3168 17.0668 24.3793 17.447 24.2543 17.9887L21.6293 30.3637C21.546 30.8012 21.3793 31.072 21.1293 31.1762C20.8793 31.2804 20.5668 31.2283 20.1918 31.0199L16.1918 28.0824L14.2543 29.9574C14.1501 30.0616 14.046 30.1501 13.9418 30.2231C13.8376 30.296 13.6814 30.3324 13.473 30.3324L13.7543 26.2699L21.1605 19.5824C21.3272 19.4366 21.3376 19.3376 21.1918 19.2856C21.046 19.2335 20.8689 19.2699 20.6605 19.3949L11.5043 25.1762L7.53554 23.9574C7.11887 23.8116 6.91575 23.6137 6.92616 23.3637C6.93658 23.1137 7.2022 22.8845 7.72304 22.6762Z" fill="white"/>
</g>
<defs>
<filter id="filter0_d_50_1471" x="-3.07422" y="7.02002" width="40" height="40" filterUnits="userSpaceOnUse" color-interpolation-filters="sRGB">
<feFlood flood-opacity="0" result="BackgroundImageFix"/>
<feColorMatrix in="SourceAlpha" type="matrix" values="0 0 0 0 0 0 0 0 0 0 0 0 0 0 0 0 0 0 127 0" result="hardAlpha"/>
<feOffset dy="4"/>
<feGaussianBlur stdDeviation="2"/>
<feComposite in2="hardAlpha" operator="out"/>
<feColorMatrix type="matrix" values="0 0 0 0 0 0 0 0 0 0 0 0 0 0 0 0 0 0 0.25 0"/>
<feBlend mode="normal" in2="BackgroundImageFix" result="effect1_dropShadow_50_1471"/>
<feBlend mode="normal" in="SourceGraphic" in2="effect1_dropShadow_50_1471" result="shape"/>
</filter>
<clipPath id="clip0_50_1471">
<rect width="32" height="32" fill="white" transform="matrix(1 0 0 -1 0.925781 39.02)"/>
</clipPath>
</defs>
</svg>
